<svg width="69" height="69" viewBox="0 0 69 69" fill="none" xmlns="http://www.w3.org/2000/svg">
<g opacity="0.5" clip-path="url(#clip0_1356_9552)">
<path fill-rule="evenodd" clip-rule="evenodd" d="M57.5 8.625H11.5C8.3375 8.625 5.75 11.2125 5.75 14.375V54.625C5.75 57.7875 8.3375 60.375 11.5 60.375H57.5C60.6625 60.375 63.25 57.7875 63.25 54.625V14.375C63.25 11.2125 60.6625 8.625 57.5 8.625ZM25.875 48.875H17.25C15.6687 48.875 14.375 47.5813 14.375 46C14.375 44.4187 15.6687 43.125 17.25 43.125H25.875C27.4563 43.125 28.75 44.4187 28.75 46C28.75 47.5813 27.4563 48.875 25.875 48.875ZM25.875 37.375H17.25C15.6687 37.375 14.375 36.0813 14.375 34.5C14.375 32.9187 15.6687 31.625 17.25 31.625H25.875C27.4563 31.625 28.75 32.9187 28.75 34.5C28.75 36.0813 27.4563 37.375 25.875 37.375ZM25.875 25.875H17.25C15.6687 25.875 14.375 24.5813 14.375 23C14.375 21.4187 15.6687 20.125 17.25 20.125H25.875C27.4563 20.125 28.75 21.4187 28.75 23C28.75 24.5813 27.4563 25.875 25.875 25.875ZM53.7625 31.97L44.6487 41.0837C43.5275 42.205 41.6875 42.205 40.5662 41.0837L36.5125 37.0012C35.3912 35.88 35.3912 34.0688 36.5125 32.9475C37.6337 31.8263 39.445 31.8263 40.5662 32.9475L42.6075 34.9888L49.7088 27.8875C50.83 26.7662 52.6413 26.7662 53.7625 27.8875L53.7912 27.9163C54.8837 29.0375 54.8838 30.8775 53.7625 31.97Z" fill="#747474"/>
</g>
<defs>
<clipPath id="clip0_1356_9552">
<rect width="69" height="69" fill="white"/>
</clipPath>
</defs>
</svg>
