<svg width="30" height="30" viewBox="0 0 30 30" fill="none" xmlns="http://www.w3.org/2000/svg">
<g clip-path="url(#clip0_1152_6838)">
<path d="M19.4717 13.9399C21.4775 13.9399 23.0846 12.3208 23.0846 10.3149C23.0846 8.30911 21.4775 6.68994 19.4717 6.68994C17.4658 6.68994 15.8467 8.30911 15.8467 10.3149C15.8467 12.3208 17.4658 13.9399 19.4717 13.9399ZM9.80501 13.9399C11.8108 13.9399 13.4179 12.3208 13.4179 10.3149C13.4179 8.30911 11.8108 6.68994 9.80501 6.68994C7.79918 6.68994 6.18001 8.30911 6.18001 10.3149C6.18001 12.3208 7.79918 13.9399 9.80501 13.9399ZM9.80501 16.3566C6.9896 16.3566 1.34668 17.7704 1.34668 20.5858V22.3983C1.34668 23.0629 1.89043 23.6066 2.55501 23.6066H17.055C17.7196 23.6066 18.2633 23.0629 18.2633 22.3983V20.5858C18.2633 17.7704 12.6204 16.3566 9.80501 16.3566ZM19.4717 16.3566C19.1213 16.3566 18.7225 16.3808 18.2996 16.417C18.3238 16.4291 18.3358 16.4533 18.3479 16.4654C19.7254 17.4683 20.68 18.8095 20.68 20.5858V22.3983C20.68 22.8212 20.5954 23.232 20.4625 23.6066H26.7217C27.3863 23.6066 27.93 23.0629 27.93 22.3983V20.5858C27.93 17.7704 22.2871 16.3566 19.4717 16.3566Z" fill="#323232"/>
</g>
<defs>
<clipPath id="clip0_1152_6838">
<rect width="29" height="29" fill="white" transform="translate(0.138672 0.648438)"/>
</clipPath>
</defs>
</svg>
