<svg width="69" height="69" viewBox="0 0 69 69" fill="none" xmlns="http://www.w3.org/2000/svg">
<g opacity="0.5" clip-path="url(#clip0_1351_9450)">
<path d="M23 54.625H46C47.5813 54.625 48.875 53.3313 48.875 51.75V14.375C48.875 12.7937 47.5813 11.5 46 11.5H23C21.4187 11.5 20.125 12.7937 20.125 14.375V51.75C20.125 53.3313 21.4187 54.625 23 54.625ZM8.625 48.875H14.375C15.9563 48.875 17.25 47.5813 17.25 46V20.125C17.25 18.5437 15.9563 17.25 14.375 17.25H8.625C7.04375 17.25 5.75 18.5437 5.75 20.125V46C5.75 47.5813 7.04375 48.875 8.625 48.875ZM51.75 20.125V46C51.75 47.5813 53.0437 48.875 54.625 48.875H60.375C61.9563 48.875 63.25 47.5813 63.25 46V20.125C63.25 18.5437 61.9563 17.25 60.375 17.25H54.625C53.0437 17.25 51.75 18.5437 51.75 20.125Z" fill="#747474"/>
</g>
<defs>
<clipPath id="clip0_1351_9450">
<rect width="69" height="69" fill="white"/>
</clipPath>
</defs>
</svg>
