<svg width="69" height="69" viewBox="0 0 69 69" fill="none" xmlns="http://www.w3.org/2000/svg">
<g opacity="0.5">
<path d="M45.828 33.4529C50.5713 33.4529 54.5781 29.2511 54.5781 23.8148C54.5781 18.5084 50.5496 14.4365 45.828 14.4365C41.128 14.4365 37.0778 18.5733 37.0995 23.8581C37.0995 29.2511 41.0847 33.4529 45.828 33.4529ZM20.7905 33.9511C24.9273 33.9511 28.4143 30.2691 28.4143 25.5475C28.4143 20.9125 24.884 17.3821 20.7905 17.3821C16.697 17.3821 13.1666 20.9775 13.1882 25.5908C13.1882 30.2691 16.6753 33.9511 20.7905 33.9511ZM8.85648 53.6172H25.1006C22.7831 50.3034 25.2738 43.7625 30.1687 39.9072C27.7862 38.3695 24.689 37.2432 20.7905 37.2432C11.109 37.2432 4.84961 44.3689 4.84961 50.2385C4.84961 52.3827 5.93255 53.6172 8.85648 53.6172ZM32.3346 53.5956H59.3214C62.8951 53.5956 64.1296 52.5126 64.1296 50.52C64.1296 44.9537 57.0472 37.2865 45.828 37.2865C34.5871 37.2865 27.5263 44.9537 27.5263 50.52C27.5263 52.5126 28.7609 53.5956 32.3346 53.5956Z" fill="#747474"/>
</g>
</svg>
